<?xml version="1.0" encoding="UTF-8"?>
<svg width="20px" height="20px" viewBox="0 0 20 20" version="1.1" xmlns="http://www.w3.org/2000/svg" xmlns:xlink="http://www.w3.org/1999/xlink">
    <title>F9628A5C-7A20-481C-AC1B-229A6BD58DC2</title>
    <g id="Design-System" stroke="none" stroke-width="1" fill="none" fill-rule="evenodd">
        <g id="DS_Cross_01.07-Icone" transform="translate(-361.000000, -1676.000000)" fill="#fff" fill-rule="nonzero">
            <g id="icone/social/instagram" transform="translate(361.000000, 1676.000000)">
                <path d="M17.9518756,6.70160889 C17.9385835,6.03794562 17.8128517,5.38134093 17.5800267,4.75971556 C17.3791461,4.22590258 17.0642447,3.7423311 16.65728,3.34272 C16.2576689,2.93575533 15.7740974,2.62085387 15.2402844,2.41997333 C14.6186591,2.18714828 13.9620544,2.06141649 13.2983911,2.04812444 C12.4450933,2.00922667 12.1726844,2 10,2 C7.82731556,2 7.55490667,2.00922667 6.70160889,2.04812444 C6.03794562,2.06141649 5.38134093,2.18714828 4.75971556,2.41997333 C4.22590258,2.62085387 3.7423311,2.93575533 3.34272,3.34272 C2.93575533,3.7423311 2.62085387,4.22590258 2.41997333,4.75971556 C2.18714828,5.38134093 2.06141649,6.03794562 2.04812444,6.70160889 C2.00922667,7.55490667 2,7.82731556 2,10 C2,12.1726844 2.00922667,12.4450933 2.04812444,13.2983911 C2.06141649,13.9620544 2.18714828,14.6186591 2.41997333,15.2402844 C2.62085387,15.7740974 2.93575533,16.2576689 3.34272,16.65728 C3.74231655,17.0642624 4.22589221,17.3791666 4.75971556,17.5800267 C5.38134093,17.8128517 6.03794562,17.9385835 6.70160889,17.9518756 C7.55490667,17.9908356 7.82731556,18 10,18 C12.1726844,18 12.4450933,17.9908356 13.2983911,17.9518756 C13.9620544,17.9385835 14.6186591,17.8128517 15.2402844,17.5800267 C16.3148928,17.1644167 17.1644079,16.3149017 17.5800178,15.2402933 C17.8128428,14.618668 17.9385746,13.9620633 17.9518667,13.2984 C17.9907733,12.4450933 18,12.1726844 18,10 C18,7.82731556 17.9907733,7.55490667 17.9518756,6.70160889 Z M16.5119378,13.2326933 C16.5059335,13.7399777 16.4127415,14.2424519 16.2364356,14.7181511 C15.9673304,15.4158648 15.4158632,15.9673353 14.7181511,16.2364444 C14.2424502,16.4127442 13.7399771,16.505936 13.2326933,16.5119467 C12.3892178,16.5504 12.1362311,16.5585422 10,16.5585422 C7.86376889,16.5585422 7.61078222,16.5504 6.76730667,16.5119378 C6.26002344,16.50593 5.75755029,16.4127412 5.28184889,16.2364444 C4.9343558,16.1082277 4.62002635,15.9037412 4.36198222,15.6380267 C4.09626337,15.3799809 3.89177371,15.0656482 3.76355556,14.7181511 C3.58724961,14.2424519 3.49405761,13.7399777 3.48805333,13.2326933 C3.4496,12.3891022 3.44145778,12.1361244 3.44145778,10 C3.44145778,7.86387556 3.4496,7.61089778 3.48806222,6.76730667 C3.49407,6.26002344 3.58725879,5.75755029 3.76355556,5.28184889 C3.89177229,4.9343558 4.09625881,4.62002635 4.36197333,4.36198222 C4.62001912,4.09626337 4.93435178,3.89177371 5.28184889,3.76355556 C5.75754975,3.58725575 6.26002292,3.49406396 6.76730667,3.48805333 C7.61089778,3.4496 7.86387556,3.44145778 10,3.44145778 C12.1361244,3.44145778 12.3891022,3.4496 13.2326933,3.48806222 C13.7399771,3.49407285 14.2424502,3.58726464 14.7181511,3.76356444 C15.0656442,3.89178118 15.3799736,4.0962677 15.6380178,4.36198222 C15.9037355,4.62002545 16.1082251,4.93435496 16.2364444,5.28184889 C16.4127442,5.75754975 16.505936,6.26002292 16.5119467,6.76730667 C16.5504089,7.61086222 16.5585511,7.86392889 16.5585511,10 C16.5585511,12.1360711 16.5504,12.3891022 16.5119378,13.2326933 L16.5119378,13.2326933 Z M10,5.89187556 C7.73114552,5.89187556 5.89187556,7.73114552 5.89187556,10 C5.89187556,12.2688545 7.73114552,14.1081244 10,14.1081244 C12.2688545,14.1081244 14.1081244,12.2688545 14.1081244,10 C14.1081244,7.73115569 12.2688443,5.89187556 10,5.89187556 Z M10,12.6666667 C8.52724067,12.6666667 7.33333333,11.4727593 7.33333333,10 C7.33333333,8.52724067 8.52724067,7.33333333 10,7.33333333 C11.4727593,7.33333333 12.6666667,8.52724067 12.6666667,10 C12.6666667,10.707244 12.3857151,11.3855211 11.8856181,11.8856181 C11.3855211,12.3857151 10.707244,12.6666667 10,12.6666667 Z M15.2304178,5.7296 C15.2304178,6.25979336 14.8006111,6.6896 14.2704178,6.6896 C13.7402244,6.6896 13.3104178,6.25979336 13.3104178,5.7296 C13.3104178,5.19940664 13.7402244,4.7696 14.2704178,4.7696 C14.8006111,4.7696 15.2304178,5.19940664 15.2304178,5.7296 L15.2304178,5.7296 Z" id="Shape"></path>
            </g>
        </g>
    </g>
</svg>
